<svg id="Layer_1" data-name="Layer 1" xmlns="http://www.w3.org/2000/svg" viewBox="0 0 217.45 225"><defs><style>.cls-1{fill:#fff;}</style></defs><title>Untitled-1</title><path class="cls-1" d="M687.63,339.11c-9-3-12.43-9.14-12.21-18.59,0.43-19,.13-38,0.13-57,0-1.8,0-3.6,0-5.65h30.11v50.88H862.42V257.89h30.3v16.63c0,15.33-.34,30.67.13,46,0.29,9.47-3.35,15.54-12.21,18.6h-193Z" transform="translate(-675.41 -114.11)"/><path class="cls-1" d="M803.63,114.11c0.69,2.08,2,4.15,2,6.24,0.15,22,.09,44,0.09,65.94v6.3h27.71c-1.21,2.74-1.62,4.48-2.61,5.76q-19.58,25.53-39.32,50.94c-5.24,6.75-7.1,6.65-12.54.06-13.66-16.55-27.42-33-41.08-49.57-1.07-1.3-1.71-2.95-3.1-5.38h28.51c0-2.57,0-4.5,0-6.44,0-23-.06-46,0.08-68.94,0-1.64,1.48-3.28,2.28-4.91h38Z" transform="translate(-675.41 -114.11)"/></svg>